<svg xmlns="http://www.w3.org/2000/svg" viewBox="0 0 100 100" width="100" height="100"
     fill="none" stroke="currentColor" stroke-width="5"
     stroke-linecap="round" stroke-linejoin="round" role="img" aria-label="D20">

  <!-- face de topo destacada -->
  <path d="M46.25 30.54 L31.27 56.49 Q27.52 62.98 35.02 62.98 L64.98 62.98
           Q72.48 62.98 68.73 56.49 L53.75 30.54 Q50 24.04 46.25 30.54 Z"
        fill="currentColor" fill-opacity=".12" />

  <!-- silhueta hexagonal -->
  <path d="M43.51 11.75 Q50 8 56.49 11.75 L79.88 25.25 Q86.37 29 86.37 36.5 L86.37 63.5
           Q86.37 71 79.88 74.75 L56.49 88.25 Q50 92 43.51 88.25 L20.12 74.75
           Q13.63 71 13.63 63.5 L13.63 36.5 Q13.63 29 20.12 25.25 Z" />

  <!-- arestas radiais das 9 faces visiveis (extremos sobre as curvas) -->
  <path d="M50 27.29 L50 9.88 M50 27.29 L84.75 29.94 M50 27.29 L15.25 29.94" />
  <path d="M30.33 61.36 L15.25 29.94 M30.33 61.36 L15.25 70.06 M30.33 61.36 L50 90.13" />
  <path d="M69.67 61.36 L84.75 29.94 M69.67 61.36 L84.75 70.06 M69.67 61.36 L50 90.13" />
</svg>
